<svg width="31" height="32" viewBox="0 0 31 32" fill="none" xmlns="http://www.w3.org/2000/svg">
<path d="M14.9156 11.7641C14.5251 11.3736 13.8919 11.3736 13.5014 11.7641C13.1109 12.1546 13.1109 12.7878 13.5014 13.1783L14.9156 11.7641ZM18.0835 16.3462L18.7906 17.0533C18.9781 16.8658 19.0835 16.6114 19.0835 16.3462C19.0835 16.081 18.9781 15.8266 18.7906 15.6391L18.0835 16.3462ZM13.5014 19.5141C13.1109 19.9046 13.1109 20.5378 13.5014 20.9283C13.8919 21.3188 14.5251 21.3188 14.9156 20.9283L13.5014 19.5141ZM13.5014 13.1783L17.3764 17.0533L18.7906 15.6391L14.9156 11.7641L13.5014 13.1783ZM17.3764 15.6391L13.5014 19.5141L14.9156 20.9283L18.7906 17.0533L17.3764 15.6391Z" fill="white"/>
</svg>
