<svg width="24" height="25" viewBox="0 0 24 25" fill="none" xmlns="http://www.w3.org/2000/svg">
<path d="M20.5 12.3462C20.5 17.0406 16.6944 20.8462 12 20.8462V21.8462C17.2467 21.8462 21.5 17.5929 21.5 12.3462H20.5ZM12 20.8462C7.30558 20.8462 3.5 17.0406 3.5 12.3462H2.5C2.5 17.5929 6.75329 21.8462 12 21.8462V20.8462ZM3.5 12.3462C3.5 7.65174 7.30558 3.84616 12 3.84616V2.84616C6.75329 2.84616 2.5 7.09946 2.5 12.3462H3.5ZM12 3.84616C16.6944 3.84616 20.5 7.65174 20.5 12.3462H21.5C21.5 7.09946 17.2467 2.84616 12 2.84616V3.84616Z" fill="white"/>
<path d="M15.3536 11.6997C15.5488 11.5045 15.5488 11.1879 15.3536 10.9926C15.1583 10.7973 14.8417 10.7973 14.6464 10.9926L15.3536 11.6997ZM12 14.3462L11.6464 14.6997C11.8417 14.895 12.1583 14.895 12.3536 14.6997L12 14.3462ZM9.35355 10.9926C9.15829 10.7973 8.84171 10.7973 8.64645 10.9926C8.45118 11.1879 8.45118 11.5045 8.64645 11.6997L9.35355 10.9926ZM14.6464 10.9926L11.6464 13.9926L12.3536 14.6997L15.3536 11.6997L14.6464 10.9926ZM12.3536 13.9926L9.35355 10.9926L8.64645 11.6997L11.6464 14.6997L12.3536 13.9926Z" fill="white"/>
</svg>
