<svg width="57" height="57" viewBox="0 0 57 57" fill="none" xmlns="http://www.w3.org/2000/svg">
<path d="M28.5 38C33.7467 38 38 33.7467 38 28.5C38 23.2533 33.7467 19 28.5 19C23.2533 19 19 23.2533 19 28.5C19 33.7467 23.2533 38 28.5 38Z" stroke="black" stroke-width="2" stroke-linecap="round" stroke-linejoin="round"/>
<path d="M45.3661 18.5873L46.232 18.0871L46.232 18.0871L45.3661 18.5873ZM45.5223 18.8577L44.6564 19.3579V19.3579L45.5223 18.8577ZM47.3262 20.6327L47.8123 19.7589V19.7589L47.3262 20.6327ZM51.0101 22.6821L50.524 23.556L51.0101 22.6821ZM52.2305 24.7522L51.2305 24.7545V24.7545L52.2305 24.7522ZM52.2475 32.2378L51.2475 32.2401V32.2401L52.2475 32.2378ZM51.0237 34.3205L50.539 33.4459V33.4459L51.0237 34.3205ZM47.3309 36.367L47.8156 37.2417L47.3309 36.367ZM45.5202 38.1458L44.6543 37.6456L44.6543 37.6456L45.5202 38.1458ZM45.3661 38.4126L46.232 38.9127L46.232 38.9127L45.3661 38.4126ZM44.7299 40.8684L43.73 40.8852L44.7299 40.8684ZM44.801 45.098L43.8012 45.1149L44.801 45.098ZM43.6185 47.1921L43.1166 46.3272H43.1166L43.6185 47.1921ZM37.1396 50.9524L37.6415 51.8173L37.1396 50.9524ZM34.7249 50.9345L35.2397 50.0772L34.7249 50.9345ZM31.1005 48.7586L30.5858 49.616L31.1005 48.7586ZM25.9027 48.7558L26.4164 49.6138H26.4164L25.9027 48.7558ZM22.2949 50.9161L21.7811 50.0581L22.2949 50.9161ZM19.889 50.9362L20.3883 50.0698L19.889 50.9362ZM13.3895 47.1909L13.8887 46.3244L13.3895 47.1909ZM12.2006 45.093L13.2005 45.1099L12.2006 45.093ZM12.2717 40.8818L11.2718 40.8649V40.8649L12.2717 40.8818ZM11.6448 38.442L12.5127 37.9452L11.6448 38.442ZM11.4797 38.1535L10.6118 38.6503L10.6118 38.6503L11.4797 38.1535ZM9.66644 36.3622L9.1803 37.2361L9.66644 36.3622ZM5.99132 34.3177L5.50517 35.1916H5.50517L5.99132 34.3177ZM4.77092 32.2477L3.77092 32.2499L4.77092 32.2477ZM4.75391 24.7621L5.75391 24.7598L4.75391 24.7621ZM5.97771 22.6793L6.46242 23.554H6.46242L5.97771 22.6793ZM9.67056 20.6329L9.18585 19.7582L9.18585 19.7582L9.67056 20.6329ZM11.4813 18.8541L10.6153 18.3539L10.6153 18.3539L11.4813 18.8541ZM11.6354 18.5873L12.5013 19.0875L12.5013 19.0875L11.6354 18.5873ZM12.2716 16.1315L13.2715 16.1147L12.2716 16.1315ZM12.2004 11.9018L11.2006 11.9187L12.2004 11.9018ZM13.3829 9.80778L13.8849 10.6727L13.3829 9.80778ZM19.8619 6.04746L20.3639 6.91235L20.3639 6.91235L19.8619 6.04746ZM22.2765 6.06533L21.7618 6.92269V6.92269L22.2765 6.06533ZM25.9009 8.24124L25.3862 9.0986L25.9009 8.24124ZM31.0988 8.24407L30.5851 7.38611L30.5851 7.38611L31.0988 8.24407ZM34.7066 6.0838L34.1929 5.22584V5.22584L34.7066 6.0838ZM37.1125 6.06366L37.6118 5.19722V5.19722L37.1125 6.06366ZM43.6121 9.80905L44.1114 8.94261L43.6121 9.80905ZM44.8009 11.9068L43.8011 11.89V11.89L44.8009 11.9068ZM44.7299 16.1315L43.73 16.1147V16.1147L44.7299 16.1315ZM44.5002 19.0875L44.6564 19.3579L46.3882 18.3575L46.232 18.0871L44.5002 19.0875ZM46.84 21.5066L50.524 23.556L51.4963 21.8083L47.8123 19.7589L46.84 21.5066ZM51.2305 24.7545L51.2475 32.2401L53.2475 32.2355L53.2305 24.7499L51.2305 24.7545ZM50.539 33.4459L46.8462 35.4923L47.8156 37.2417L51.5085 35.1952L50.539 33.4459ZM44.6543 37.6456L44.5002 37.9124L46.232 38.9127L46.3861 38.646L44.6543 37.6456ZM43.73 40.8852L43.8012 45.1149L45.8009 45.0812L45.7297 40.8516L43.73 40.8852ZM43.1166 46.3272L36.6376 50.0875L37.6415 51.8173L44.1205 48.057L43.1166 46.3272ZM35.2397 50.0772L31.6153 47.9013L30.5858 49.616L34.2102 51.7919L35.2397 50.0772ZM28.6556 47.0811H28.3429V49.0811H28.6556V47.0811ZM25.389 47.8978L21.7811 50.0581L22.8086 51.774L26.4164 49.6138L25.389 47.8978ZM20.3883 50.0698L13.8887 46.3244L12.8902 48.0573L19.3897 51.8026L20.3883 50.0698ZM13.2005 45.1099L13.2716 40.8987L11.2718 40.8649L11.2007 45.0761L13.2005 45.1099ZM12.5127 37.9452L12.3476 37.6567L10.6118 38.6503L10.7769 38.9387L12.5127 37.9452ZM10.1526 35.4884L6.47746 33.4439L5.50517 35.1916L9.1803 37.2361L10.1526 35.4884ZM5.77091 32.2454L5.75391 24.7598L3.75392 24.7644L3.77092 32.2499L5.77091 32.2454ZM6.46242 23.554L10.1553 21.5076L9.18585 19.7582L5.49299 21.8047L6.46242 23.554ZM12.3472 19.3543L12.5013 19.0875L10.7695 18.0871L10.6153 18.3539L12.3472 19.3543ZM13.2715 16.1147L13.2003 11.885L11.2006 11.9187L11.2717 16.1483L13.2715 16.1147ZM13.8849 10.6727L20.3639 6.91235L19.3599 5.18258L12.881 8.94289L13.8849 10.6727ZM21.7618 6.92269L25.3862 9.0986L26.4156 7.38387L22.7912 5.20797L21.7618 6.92269ZM28.3458 9.91877H28.6586V7.91877H28.3458V9.91877ZM31.6125 9.10202L35.2203 6.94176L34.1929 5.22584L30.5851 7.38611L31.6125 9.10202ZM36.6132 6.9301L43.1128 10.6755L44.1114 8.94261L37.6118 5.19722L36.6132 6.9301ZM43.8011 11.89L43.73 16.1147L45.7297 16.1483L45.8008 11.9236L43.8011 11.89ZM43.1128 10.6755C43.5459 10.9251 43.8095 11.3901 43.8011 11.89L45.8008 11.9236C45.8214 10.6967 45.1745 9.55527 44.1114 8.94261L43.1128 10.6755ZM35.2203 6.94176C35.6482 6.68559 36.1811 6.68112 36.6132 6.9301L37.6118 5.19722C36.5513 4.5861 35.243 4.59706 34.1929 5.22584L35.2203 6.94176ZM28.6586 9.91877C29.699 9.91877 30.7199 9.63649 31.6125 9.10202L30.5851 7.38611C30.0029 7.73468 29.3371 7.91877 28.6586 7.91877V9.91877ZM25.3862 9.0986C26.2801 9.63527 27.3032 9.91877 28.3458 9.91877V7.91877C27.6658 7.91877 26.9986 7.73388 26.4156 7.38387L25.3862 9.0986ZM20.3639 6.91235C20.797 6.66098 21.3325 6.66494 21.7618 6.92269L22.7912 5.20797C21.7374 4.57531 20.423 4.56559 19.3599 5.18258L20.3639 6.91235ZM13.2003 11.885C13.1919 11.3867 13.4538 10.9228 13.8849 10.6727L12.881 8.94289C11.8229 9.55697 11.18 10.6955 11.2006 11.9187L13.2003 11.885ZM12.5013 19.0875C13.0228 18.1847 13.289 17.1571 13.2715 16.1147L11.2717 16.1483C11.2832 16.8282 11.1096 17.4983 10.7695 18.0871L12.5013 19.0875ZM10.1553 21.5076C11.0677 21.0019 11.8254 20.2576 12.3472 19.3543L10.6153 18.3539C10.2751 18.943 9.78091 19.4284 9.18585 19.7582L10.1553 21.5076ZM5.75391 24.7598C5.75277 24.2588 6.02422 23.7969 6.46242 23.554L5.49299 21.8047C4.41739 22.4007 3.75112 23.5346 3.75392 24.7644L5.75391 24.7598ZM6.47746 33.4439C6.04231 33.2018 5.77204 32.7433 5.77091 32.2454L3.77092 32.2499C3.77369 33.4722 4.43707 34.5974 5.50517 35.1916L6.47746 33.4439ZM12.3476 37.6567C11.8271 36.7475 11.0681 35.9977 10.1526 35.4884L9.1803 37.2361C9.77739 37.5683 10.2724 38.0573 10.6118 38.6503L12.3476 37.6567ZM13.2716 40.8987C13.289 39.8638 13.0268 38.8434 12.5127 37.9452L10.7769 38.9387C11.1122 39.5245 11.2832 40.19 11.2718 40.8649L13.2716 40.8987ZM13.8887 46.3244C13.4556 46.0748 13.192 45.6097 13.2005 45.1099L11.2007 45.0761C11.18 46.3031 11.8269 47.4446 12.8902 48.0573L13.8887 46.3244ZM21.7811 50.0581C21.3533 50.3143 20.8203 50.3187 20.3883 50.0698L19.3897 51.8026C20.4502 52.4138 21.7584 52.4028 22.8086 51.774L21.7811 50.0581ZM28.3429 47.0811C27.3025 47.0811 26.2816 47.3634 25.389 47.8978L26.4164 49.6138C26.9985 49.2652 27.6643 49.0811 28.3429 49.0811V47.0811ZM31.6153 47.9013C30.7213 47.3646 29.6983 47.0811 28.6556 47.0811V49.0811C29.3356 49.0811 30.0028 49.266 30.5858 49.616L31.6153 47.9013ZM36.6376 50.0875C36.2045 50.3389 35.669 50.3349 35.2397 50.0772L34.2102 51.7919C35.264 52.4246 36.5785 52.4343 37.6415 51.8173L36.6376 50.0875ZM43.8012 45.1149C43.8095 45.6132 43.5476 46.077 43.1166 46.3272L44.1205 48.057C45.1785 47.4429 45.8215 46.3044 45.8009 45.0812L43.8012 45.1149ZM44.5002 37.9124C43.9787 38.8152 43.7125 39.8428 43.73 40.8852L45.7297 40.8516C45.7183 40.1717 45.8919 39.5015 46.232 38.9127L44.5002 37.9124ZM46.8462 35.4923C45.9338 35.998 45.1761 36.7423 44.6543 37.6456L46.3861 38.646C46.7264 38.0569 47.2205 37.5714 47.8156 37.2417L46.8462 35.4923ZM51.2475 32.2401C51.2487 32.7411 50.9772 33.203 50.539 33.4459L51.5085 35.1952C52.5841 34.5991 53.2503 33.4652 53.2475 32.2355L51.2475 32.2401ZM50.524 23.556C50.9591 23.7981 51.2294 24.2565 51.2305 24.7545L53.2305 24.7499C53.2278 23.5277 52.5644 22.4025 51.4963 21.8083L50.524 23.556ZM44.6564 19.3579C45.1766 20.2584 45.9312 21.001 46.84 21.5066L47.8123 19.7589C47.2196 19.4291 46.7275 18.9448 46.3882 18.3575L44.6564 19.3579ZM46.232 18.0871C45.8919 17.4983 45.7183 16.8282 45.7297 16.1483L43.73 16.1147C43.7125 17.1571 43.9787 18.1847 44.5002 19.0875L46.232 18.0871Z" fill="black"/>
</svg>
