<svg width="54" height="55" viewBox="0 0 54 55" fill="none" xmlns="http://www.w3.org/2000/svg">
<path d="M27 47.5962C38.1838 47.5962 47.25 38.5299 47.25 27.3462C47.25 16.1624 38.1838 7.09616 27 7.09616C15.8162 7.09616 6.75 16.1624 6.75 27.3462C6.75 38.5299 15.8162 47.5962 27 47.5962Z" stroke="white" stroke-width="2" stroke-linecap="round" stroke-linejoin="round"/>
<path d="M38.7371 43.8438C35.8532 40.623 31.6631 38.5962 26.9996 38.5962C22.3362 38.5962 18.1461 40.623 15.2622 43.8438" stroke="white" stroke-width="2" stroke-linecap="round" stroke-linejoin="round"/>
<path d="M27 31.8462C30.7279 31.8462 33.75 28.8241 33.75 25.0962C33.75 21.3682 30.7279 18.3462 27 18.3462C23.2721 18.3462 20.25 21.3682 20.25 25.0962C20.25 28.8241 23.2721 31.8462 27 31.8462Z" stroke="white" stroke-width="2" stroke-linecap="round" stroke-linejoin="round"/>
</svg>
